{
  "accessors": [
    {
      "bufferView": 2,
      "componentType": 5126,
      "count": 65532,
      "max": [
        0.12183428555727005,
        -5.281252861022949,
        -0.23642343282699585
      ],
      "min": [
        0.09189462661743164,
        -5.308170318603516,
        -0.24215106666088104
      ],
      "type": "VEC3"
    },
    {
      "bufferView": 2,
      "byteOffset": 786384,
      "componentType": 5126,
      "count": 65532,
      "max": [
        0.9999056458473206,
        0.9999791383743286,
        1.0
      ],
      "min": [
        -0.9999558925628662,
        -0.9999961256980896,
        -0.9999038577079773
      ],
      "type": "VEC3"
    },
    {
      "bufferView": 1,
      "componentType": 5126,
      "count": 65532,
      "max": [
        0.999740481376648,
        0.9997389316558838
      ],
      "min": [
        0.031869590282440186,
        0.04350748658180237
      ],
      "type": "VEC2"
    },
    {
      "bufferView": 0,
      "componentType": 5125,
      "count": 289278,
      "type": "SCALAR"
    },
    {
      "bufferView": 2,
      "byteOffset": 1572768,
      "componentType": 5126,
      "count": 65532,
      "max": [
        0.1208878830075264,
        -5.278568744659424,
        -0.2370366007089615
      ],
      "min": [
        0.09047863632440567,
        -5.307490825653076,
        -0.2422507256269455
      ],
      "type": "VEC3"
    },
    {
      "bufferView": 2,
      "byteOffset": 2359152,
      "componentType": 5126,
      "count": 65532,
      "max": [
        0.9999748468399048,
        0.9999791383743286,
        0.9999996423721313
      ],
      "min": [
        -0.9992708563804626,
        -0.9998869299888611,
        -0.9985982775688171
      ],
      "type": "VEC3"
    },
    {
      "bufferView": 1,
      "byteOffset": 524256,
      "componentType": 5126,
      "count": 65532,
      "max": [
        0.9994017481803894,
        0.9997421503067017
      ],
      "min": [
        0.022737441584467888,
        0.0002568206109572202
      ],
      "type": "VEC2"
    },
    {
      "bufferView": 0,
      "byteOffset": 1157112,
      "componentType": 5125,
      "count": 286638,
      "type": "SCALAR"
    },
    {
      "bufferView": 2,
      "byteOffset": 3145536,
      "componentType": 5126,
      "count": 65532,
      "max": [
        0.12504474818706512,
        -5.273776531219482,
        -0.237057164311409
      ],
      "min": [
        0.09156455844640732,
        -5.308170318603516,
        -0.24233034253120422
      ],
      "type": "VEC3"
    },
    {
      "bufferView": 2,
      "byteOffset": 3931920,
      "componentType": 5126,
      "count": 65532,
      "max": [
        0.9997364282608032,
        0.9999619126319885,
        1.0
      ],
      "min": [
        -0.999558687210083,
        -0.9994373917579651,
        -0.9990849494934082
      ],
      "type": "VEC3"
    },
    {
      "bufferView": 1,
      "byteOffset": 1048512,
      "componentType": 5126,
      "count": 65532,
      "max": [
        0.9997432827949524,
        0.9997425079345703
      ],
      "min": [
        0.0002568138006608933,
        0.0002568206109572202
      ],
      "type": "VEC2"
    },
    {
      "bufferView": 0,
      "byteOffset": 2303664,
      "componentType": 5125,
      "count": 299247,
      "type": "SCALAR"
    },
    {
      "bufferView": 2,
      "byteOffset": 4718304,
      "componentType": 5126,
      "count": 65532,
      "max": [
        0.1256886124610901,
        -5.273910045623779,
        -0.2364332377910614
      ],
      "min": [
        0.09213732928037643,
        -5.308095455169678,
        -0.24211245775222778
      ],
      "type": "VEC3"
    },
    {
      "bufferView": 2,
      "byteOffset": 5504688,
      "componentType": 5126,
      "count": 65532,
      "max": [
        0.9999892711639404,
        0.9995458722114563,
        0.9999997615814209
      ],
      "min": [
        -0.9999837875366211,
        -1.0,
        -0.9998765587806702
      ],
      "type": "VEC3"
    },
    {
      "bufferView": 1,
      "byteOffset": 1572768,
      "componentType": 5126,
      "count": 65532,
      "max": [
        0.9997432827949524,
        0.9997422695159912
      ],
      "min": [
        0.0002568138006608933,
        0.0002568206109572202
      ],
      "type": "VEC2"
    },
    {
      "bufferView": 0,
      "byteOffset": 3500652,
      "componentType": 5125,
      "count": 234381,
      "type": "SCALAR"
    },
    {
      "bufferView": 2,
      "byteOffset": 6291072,
      "componentType": 5126,
      "count": 65532,
      "max": [
        0.12542666494846344,
        -5.277594566345215,
        -0.23664039373397827
      ],
      "min": [
        0.09169194847345352,
        -5.307969570159912,
        -0.24213777482509613
      ],
      "type": "VEC3"
    },
    {
      "bufferView": 2,
      "byteOffset": 7077456,
      "componentType": 5126,
      "count": 65532,
      "max": [
        0.999668300151825,
        0.9995718598365784,
        0.9999997615814209
      ],
      "min": [
        -0.999997615814209,
        -0.9995042085647583,
        -0.9987539052963257
      ],
      "type": "VEC3"
    },
    {
      "bufferView": 1,
      "byteOffset": 2097024,
      "componentType": 5126,
      "count": 65532,
      "max": [
        0.9997421503067017,
        0.9997389316558838
      ],
      "min": [
        0.0002568138006608933,
        0.0002568206109572202
      ],
      "type": "VEC2"
    },
    {
      "bufferView": 0,
      "byteOffset": 4438176,
      "componentType": 5125,
      "count": 265698,
      "type": "SCALAR"
    },
    {
      "bufferView": 2,
      "byteOffset": 7863840,
      "componentType": 5126,
      "count": 65532,
      "max": [
        0.12167365103960037,
        -5.275362014770508,
        -0.23715093731880188
      ],
      "min": [
        0.08975323289632797,
        -5.308095455169678,
        -0.24225445091724396
      ],
      "type": "VEC3"
    },
    {
      "bufferView": 2,
      "byteOffset": 8650224,
      "componentType": 5126,
      "count": 65532,
      "max": [
        0.9998804926872253,
        0.9999489188194275,
        0.9999999403953552
      ],
      "min": [
        -0.9999837875366211,
        -1.0,
        -0.9999617338180542
      ],
      "type": "VEC3"
    },
    {
      "bufferView": 1,
      "byteOffset": 2621280,
      "componentType": 5126,
      "count": 65532,
      "max": [
        0.9997432827949524,
        0.9997425079345703
      ],
      "min": [
        0.0036659794859588146,
        0.0010064240777865052
      ],
      "type": "VEC2"
    },
    {
      "bufferView": 0,
      "byteOffset": 5500968,
      "componentType": 5125,
      "count": 228498,
      "type": "SCALAR"
    },
    {
      "bufferView": 2,
      "byteOffset": 9436608,
      "componentType": 5126,
      "count": 65532,
      "max": [
        0.12160888314247131,
        -5.281856536865234,
        -0.2363525927066803
      ],
      "min": [
        0.0918816402554512,
        -5.308068752288818,
        -0.2421012669801712
      ],
      "type": "VEC3"
    },
    {
      "bufferView": 2,
      "byteOffset": 10222992,
      "componentType": 5126,
      "count": 65532,
      "max": [
        0.9999988079071045,
        1.0,
        0.9999997615814209
      ],
      "min": [
        -0.9999972581863403,
        -0.9995880126953125,
        -0.9995161294937134
      ],
      "type": "VEC3"
    },
    {
      "bufferView": 1,
      "byteOffset": 3145536,
      "componentType": 5126,
      "count": 65532,
      "max": [
        0.9997432827949524,
        0.9997425079345703
      ],
      "min": [
        0.036044392734766006,
        0.007835003547370434
      ],
      "type": "VEC2"
    },
    {
      "bufferView": 0,
      "byteOffset": 6414960,
      "componentType": 5125,
      "count": 212583,
      "type": "SCALAR"
    },
    {
      "bufferView": 2,
      "byteOffset": 11009376,
      "componentType": 5126,
      "count": 65532,
      "max": [
        0.12122146785259247,
        -5.2816081047058105,
        -0.23606564104557037
      ],
      "min": [
        0.09291455894708633,
        -5.307738304138184,
        -0.24209454655647278
      ],
      "type": "VEC3"
    },
    {
      "bufferView": 2,
      "byteOffset": 11795760,
      "componentType": 5126,
      "count": 65532,
      "max": [
        0.9999815821647644,
        1.0,
        0.9999991655349731
      ],
      "min": [
        -0.999997615814209,
        -1.0,
        -0.999713659286499
      ],
      "type": "VEC3"
    },
    {
      "bufferView": 1,
      "byteOffset": 3669792,
      "componentType": 5126,
      "count": 65532,
      "max": [
        0.9997432827949524,
        0.9997422695159912
      ],
      "min": [
        0.03698931261897087,
        0.057653043419122696
      ],
      "type": "VEC2"
    },
    {
      "bufferView": 0,
      "byteOffset": 7265292,
      "componentType": 5125,
      "count": 184350,
      "type": "SCALAR"
    },
    {
      "bufferView": 2,
      "byteOffset": 12582144,
      "componentType": 5126,
      "count": 65532,
      "max": [
        0.12188751995563507,
        -5.281310558319092,
        -0.2364024668931961
      ],
      "min": [
        0.09287723153829575,
        -5.307265758514404,
        -0.2421601116657257
      ],
      "type": "VEC3"
    },
    {
      "bufferView": 2,
      "byteOffset": 13368528,
      "componentType": 5126,
      "count": 65532,
      "max": [
        0.9999988079071045,
        1.0,
        0.9999997019767761
      ],
      "min": [
        -0.9999851584434509,
        -0.9998328685760498,
        -0.9999907612800598
      ],
      "type": "VEC3"
    },
    {
      "bufferView": 1,
      "byteOffset": 4194048,
      "componentType": 5126,
      "count": 65532,
      "max": [
        0.9997416734695435,
        0.9997421503067017
      ],
      "min": [
        0.006674656644463539,
        0.0027212705463171005
      ],
      "type": "VEC2"
    },
    {
      "bufferView": 0,
      "byteOffset": 8002692,
      "componentType": 5125,
      "count": 231216,
      "type": "SCALAR"
    },
    {
      "bufferView": 2,
      "byteOffset": 14154912,
      "componentType": 5126,
      "count": 65533,
      "max": [
        0.12180780619382858,
        -5.281257629394531,
        -0.23445925116539001
      ],
      "min": [
        0.09287723153829575,
        -5.308204650878906,
        -0.24228991568088531
      ],
      "type": "VEC3"
    },
    {
      "bufferView": 2,
      "byteOffset": 14941308,
      "componentType": 5126,
      "count": 65533,
      "max": [
        0.9999926686286926,
        0.9999704957008362,
        0.9999988079071045
      ],
      "min": [
        -0.9999493360519409,
        -0.9998797178268433,
        -0.9999591708183289
      ],
      "type": "VEC3"
    },
    {
      "bufferView": 1,
      "byteOffset": 4718304,
      "componentType": 5126,
      "count": 65533,
      "max": [
        0.9997432827949524,
        0.9997425079345703
      ],
      "min": [
        0.006536461878567934,
        0.0002568206109572202
      ],
      "type": "VEC2"
    },
    {
      "bufferView": 0,
      "byteOffset": 8927556,
      "componentType": 5125,
      "count": 239358,
      "type": "SCALAR"
    },
    {
      "bufferView": 2,
      "byteOffset": 15727704,
      "componentType": 5126,
      "count": 65534,
      "max": [
        0.12593849003314972,
        -5.281134128570557,
        -0.23331452906131744
      ],
      "min": [
        0.09279291331768036,
        -5.308371543884277,
        -0.24252066016197205
      ],
      "type": "VEC3"
    },
    {
      "bufferView": 2,
      "byteOffset": 16514112,
      "componentType": 5126,
      "count": 65534,
      "max": [
        0.9999917149543762,
        1.0,
        0.9999997019767761
      ],
      "min": [
        -0.9999945759773254,
        -0.999996542930603,
        -0.9999512434005737
      ],
      "type": "VEC3"
    },
    {
      "bufferView": 1,
      "byteOffset": 5242568,
      "componentType": 5126,
      "count": 65534,
      "max": [
        0.9997422695159912,
        0.9997423887252808
      ],
      "min": [
        0.011471138335764408,
        0.004323163069784641
      ],
      "type": "VEC2"
    },
    {
      "bufferView": 0,
      "byteOffset": 9884988,
      "componentType": 5125,
      "count": 233196,
      "type": "SCALAR"
    },
    {
      "bufferView": 2,
      "byteOffset": 17300520,
      "componentType": 5126,
      "count": 65534,
      "max": [
        0.125904381275177,
        -5.274423122406006,
        -0.23522146046161652
      ],
      "min": [
        0.09191486984491348,
        -5.307989597320557,
        -0.24215452373027802
      ],
      "type": "VEC3"
    },
    {
      "bufferView": 2,
      "byteOffset": 18086928,
      "componentType": 5126,
      "count": 65534,
      "max": [
        0.9999621510505676,
        0.999977707862854,
        0.9999996423721313
      ],
      "min": [
        -0.9999851584434509,
        -0.9999860525131226,
        -0.9999857544898987
      ],
      "type": "VEC3"
    },
    {
      "bufferView": 1,
      "byteOffset": 5766840,
      "componentType": 5126,
      "count": 65534,
      "max": [
        0.9997432827949524,
        0.9997418522834778
      ],
      "min": [
        0.0002568138006608933,
        0.004538802430033684
      ],
      "type": "VEC2"
    },
    {
      "bufferView": 0,
      "byteOffset": 10817772,
      "componentType": 5125,
      "count": 200418,
      "type": "SCALAR"
    },
    {
      "bufferView": 2,
      "byteOffset": 18873336,
      "componentType": 5126,
      "count": 52422,
      "max": [
        0.11898133158683777,
        -5.281582832336426,
        -0.2369546890258789
      ],
      "min": [
        0.08985675126314163,
        -5.306845188140869,
        -0.2420579344034195
      ],
      "type": "VEC3"
    },
    {
      "bufferView": 2,
      "byteOffset": 19502400,
      "componentType": 5126,
      "count": 52422,
      "max": [
        0.9997792840003967,
        1.0,
        0.999998927116394
      ],
      "min": [
        -0.9999115467071533,
        -0.9996806979179382,
        -0.9996799826622009
      ],
      "type": "VEC3"
    },
    {
      "bufferView": 1,
      "byteOffset": 6291112,
      "componentType": 5126,
      "count": 52422,
      "max": [
        0.9997432827949524,
        0.9997422695159912
      ],
      "min": [
        0.00997171737253666,
        0.014869168400764465
      ],
      "type": "VEC2"
    },
    {
      "bufferView": 0,
      "byteOffset": 11619444,
      "componentType": 5125,
      "count": 95139,
      "type": "SCALAR"
    }
  ],
  "asset": {
    "extras": {
      "author": "dudezuav (https://sketchfab.com/dudezuav)",
      "license": "CC-BY-NC-4.0 (http://creativecommons.org/licenses/by-nc/4.0/)",
      "source": "https://sketchfab.com/3d-models/dragon-playground-singapore-toa-payoh-5738cc845e3142ecbd6fd6f335e542d6",
      "title": "Dragon Playground @ Singapore Toa Payoh"
    },
    "generator": "Sketchfab-13.74.0",
    "version": "2.0"
  },
  "bufferViews": [
    {
      "buffer": 0,
      "byteLength": 12000000,
      "name": "floatBufferViews",
      "target": 34963
    },
    {
      "buffer": 0,
      "byteLength": 6710488,
      "byteOffset": 12000000,
      "byteStride": 8,
      "name": "floatBufferViews",
      "target": 34962
    },
    {
      "buffer": 0,
      "byteLength": 20131464,
      "byteOffset": 18710488,
      "byteStride": 12,
      "name": "floatBufferViews",
      "target": 34962
    }
  ],
  "buffers": [
    {
      "byteLength": 38841952,
      "uri": "scene.bin"
    }
  ],
  "extensionsUsed": [
    "KHR_materials_unlit"
  ],
  "images": [
    {
      "uri": "textures/texture_material_baseColor.jpeg"
    }
  ],
  "materials": [
    {
      "doubleSided": true,
      "extensions": {
        "KHR_materials_unlit": {}
      },
      "name": "texture_material",
      "pbrMetallicRoughness": {
        "baseColorTexture": {
          "index": 0
        },
        "metallicFactor": 0.0
      }
    }
  ],
  "meshes": [
    {
      "name": "mesh_out_node_texture_material_0",
      "primitives": [
        {
          "attributes": {
            "NORMAL": 1,
            "POSITION": 0,
            "TEXCOORD_0": 2
          },
          "indices": 3,
          "material": 0,
          "mode": 4
        }
      ]
    },
    {
      "name": "mesh_out_node_texture_material_0",
      "primitives": [
        {
          "attributes": {
            "NORMAL": 5,
            "POSITION": 4,
            "TEXCOORD_0": 6
          },
          "indices": 7,
          "material": 0,
          "mode": 4
        }
      ]
    },
    {
      "name": "mesh_out_node_texture_material_0",
      "primitives": [
        {
          "attributes": {
            "NORMAL": 9,
            "POSITION": 8,
            "TEXCOORD_0": 10
          },
          "indices": 11,
          "material": 0,
          "mode": 4
        }
      ]
    },
    {
      "name": "mesh_out_node_texture_material_0",
      "primitives": [
        {
          "attributes": {
            "NORMAL": 13,
            "POSITION": 12,
            "TEXCOORD_0": 14
          },
          "indices": 15,
          "material": 0,
          "mode": 4
        }
      ]
    },
    {
      "name": "mesh_out_node_texture_material_0",
      "primitives": [
        {
          "attributes": {
            "NORMAL": 17,
            "POSITION": 16,
            "TEXCOORD_0": 18
          },
          "indices": 19,
          "material": 0,
          "mode": 4
        }
      ]
    },
    {
      "name": "mesh_out_node_texture_material_0",
      "primitives": [
        {
          "attributes": {
            "NORMAL": 21,
            "POSITION": 20,
            "TEXCOORD_0": 22
          },
          "indices": 23,
          "material": 0,
          "mode": 4
        }
      ]
    },
    {
      "name": "mesh_out_node_texture_material_0",
      "primitives": [
        {
          "attributes": {
            "NORMAL": 25,
            "POSITION": 24,
            "TEXCOORD_0": 26
          },
          "indices": 27,
          "material": 0,
          "mode": 4
        }
      ]
    },
    {
      "name": "mesh_out_node_texture_material_0",
      "primitives": [
        {
          "attributes": {
            "NORMAL": 29,
            "POSITION": 28,
            "TEXCOORD_0": 30
          },
          "indices": 31,
          "material": 0,
          "mode": 4
        }
      ]
    },
    {
      "name": "mesh_out_node_texture_material_0",
      "primitives": [
        {
          "attributes": {
            "NORMAL": 33,
            "POSITION": 32,
            "TEXCOORD_0": 34
          },
          "indices": 35,
          "material": 0,
          "mode": 4
        }
      ]
    },
    {
      "name": "mesh_out_node_texture_material_0",
      "primitives": [
        {
          "attributes": {
            "NORMAL": 37,
            "POSITION": 36,
            "TEXCOORD_0": 38
          },
          "indices": 39,
          "material": 0,
          "mode": 4
        }
      ]
    },
    {
      "name": "mesh_out_node_texture_material_0",
      "primitives": [
        {
          "attributes": {
            "NORMAL": 41,
            "POSITION": 40,
            "TEXCOORD_0": 42
          },
          "indices": 43,
          "material": 0,
          "mode": 4
        }
      ]
    },
    {
      "name": "mesh_out_node_texture_material_0",
      "primitives": [
        {
          "attributes": {
            "NORMAL": 45,
            "POSITION": 44,
            "TEXCOORD_0": 46
          },
          "indices": 47,
          "material": 0,
          "mode": 4
        }
      ]
    },
    {
      "name": "mesh_out_node_texture_material_0",
      "primitives": [
        {
          "attributes": {
            "NORMAL": 49,
            "POSITION": 48,
            "TEXCOORD_0": 50
          },
          "indices": 51,
          "material": 0,
          "mode": 4
        }
      ]
    }
  ],
  "nodes": [
    {
      "children": [
        1
      ],
      "matrix": [
        0.9982070326805115,
        -0.012251644395291817,
        0.05858864635229111,
        0.0,
        -0.05876471474766731,
        -0.014541854150593503,
        0.9981659650802612,
        0.0,
        -0.011377186514437199,
        -0.9998192191123962,
        -0.015235745348036511,
        0.0,
        0.0,
        0.0,
        0.0,
        1.0
      ],
      "name": "Sketchfab_model"
    },
    {
      "children": [
        2
      ],
      "matrix": [
        1.0,
        0.0,
        0.0,
        0.0,
        0.0,
        -1.0,
        0.0,
        0.0,
        0.0,
        0.0,
        -1.0,
        0.0,
        0.0,
        0.0,
        0.0,
        1.0
      ],
      "name": "3e285e9f1018416587d5a555204fdf3b.fbx"
    },
    {
      "children": [
        3
      ],
      "name": "RootNode"
    },
    {
      "children": [
        4,
        5,
        6,
        7,
        8,
        9,
        10,
        11,
        12,
        13,
        14,
        15,
        16
      ],
      "name": "mesh_out_node"
    },
    {
      "mesh": 0,
      "name": "mesh_out_node_texture_material_0"
    },
    {
      "mesh": 1,
      "name": "mesh_out_node_texture_material_0"
    },
    {
      "mesh": 2,
      "name": "mesh_out_node_texture_material_0"
    },
    {
      "mesh": 3,
      "name": "mesh_out_node_texture_material_0"
    },
    {
      "mesh": 4,
      "name": "mesh_out_node_texture_material_0"
    },
    {
      "mesh": 5,
      "name": "mesh_out_node_texture_material_0"
    },
    {
      "mesh": 6,
      "name": "mesh_out_node_texture_material_0"
    },
    {
      "mesh": 7,
      "name": "mesh_out_node_texture_material_0"
    },
    {
      "mesh": 8,
      "name": "mesh_out_node_texture_material_0"
    },
    {
      "mesh": 9,
      "name": "mesh_out_node_texture_material_0"
    },
    {
      "mesh": 10,
      "name": "mesh_out_node_texture_material_0"
    },
    {
      "mesh": 11,
      "name": "mesh_out_node_texture_material_0"
    },
    {
      "mesh": 12,
      "name": "mesh_out_node_texture_material_0"
    }
  ],
  "samplers": [
    {
      "magFilter": 9729,
      "minFilter": 9987,
      "wrapS": 10497,
      "wrapT": 10497
    }
  ],
  "scene": 0,
  "scenes": [
    {
      "name": "Sketchfab_Scene",
      "nodes": [
        0
      ]
    }
  ],
  "textures": [
    {
      "sampler": 0,
      "source": 0
    }
  ]
}
