{
  "accessors": [
    {
      "bufferView": 2,
      "componentType": 5126,
      "count": 65532,
      "max": [
        0.37857484817504883,
        0.4813900887966156,
        0.0691736489534378
      ],
      "min": [
        -0.4323465824127197,
        -0.4813922941684723,
        -4.866160452365875e-08
      ],
      "type": "VEC3"
    },
    {
      "bufferView": 2,
      "byteOffset": 786384,
      "componentType": 5126,
      "count": 65532,
      "max": [
        0.9999523758888245,
        0.9999526739120483,
        1.0
      ],
      "min": [
        -0.999993622303009,
        -0.9999999403953552,
        -1.0
      ],
      "type": "VEC3"
    },
    {
      "bufferView": 3,
      "componentType": 5126,
      "count": 65532,
      "max": [
        1.0,
        1.0,
        0.9999989867210388,
        1.0
      ],
      "min": [
        -0.9999980330467224,
        -1.0,
        -1.0,
        -1.0
      ],
      "type": "VEC4"
    },
    {
      "bufferView": 1,
      "componentType": 5126,
      "count": 65532,
      "max": [
        0.986091136932373,
        0.9970394968986511
      ],
      "min": [
        0.0020016729831695557,
        0.0018565910868346691
      ],
      "type": "VEC2"
    },
    {
      "bufferView": 1,
      "byteOffset": 524256,
      "componentType": 5126,
      "count": 65532,
      "max": [
        3043.60009765625,
        5935.015625
      ],
      "min": [
        -8977.16015625,
        -12428.693359375
      ],
      "type": "VEC2"
    },
    {
      "bufferView": 0,
      "componentType": 5125,
      "count": 268392,
      "type": "SCALAR"
    },
    {
      "bufferView": 2,
      "byteOffset": 1572768,
      "componentType": 5126,
      "count": 65533,
      "max": [
        0.3631407618522644,
        0.5115871429443359,
        0.17403046786785126
      ],
      "min": [
        -0.4155057668685913,
        -0.49182915687561035,
        -0.0002649109810590744
      ],
      "type": "VEC3"
    },
    {
      "bufferView": 2,
      "byteOffset": 2359164,
      "componentType": 5126,
      "count": 65533,
      "max": [
        1.0,
        1.0,
        1.0
      ],
      "min": [
        -1.0,
        -1.0,
        -1.0
      ],
      "type": "VEC3"
    },
    {
      "bufferView": 3,
      "byteOffset": 1048512,
      "componentType": 5126,
      "count": 65533,
      "max": [
        1.0,
        1.0,
        1.0,
        1.0
      ],
      "min": [
        -1.0,
        -0.9999960064888,
        -1.0,
        -1.0
      ],
      "type": "VEC4"
    },
    {
      "bufferView": 1,
      "byteOffset": 1048512,
      "componentType": 5126,
      "count": 65533,
      "max": [
        0.9980698823928833,
        0.9795769453048706
      ],
      "min": [
        0.009781181812286377,
        0.0010111411102116108
      ],
      "type": "VEC2"
    },
    {
      "bufferView": 1,
      "byteOffset": 1572776,
      "componentType": 5126,
      "count": 65533,
      "max": [
        4876.75,
        8253.1708984375
      ],
      "min": [
        -5970.27734375,
        -3298.782470703125
      ],
      "type": "VEC2"
    },
    {
      "bufferView": 0,
      "byteOffset": 1073568,
      "componentType": 5125,
      "count": 245223,
      "type": "SCALAR"
    },
    {
      "bufferView": 2,
      "byteOffset": 3145560,
      "componentType": 5126,
      "count": 58994,
      "max": [
        0.35556161403656006,
        0.2995090186595917,
        0.16932103037834167
      ],
      "min": [
        -0.4363001585006714,
        -0.35272982716560364,
        1.925579272210598e-05
      ],
      "type": "VEC3"
    },
    {
      "bufferView": 2,
      "byteOffset": 3853488,
      "componentType": 5126,
      "count": 58994,
      "max": [
        1.0,
        1.0,
        1.0
      ],
      "min": [
        -0.9999997019767761,
        -1.0,
        -1.0
      ],
      "type": "VEC3"
    },
    {
      "bufferView": 3,
      "byteOffset": 2097040,
      "componentType": 5126,
      "count": 58994,
      "max": [
        1.0,
        1.0,
        1.0,
        1.0
      ],
      "min": [
        -1.0,
        -0.9999996423721313,
        -1.0,
        -1.0
      ],
      "type": "VEC4"
    },
    {
      "bufferView": 1,
      "byteOffset": 2097040,
      "componentType": 5126,
      "count": 58994,
      "max": [
        0.997746467590332,
        0.9809113144874573
      ],
      "min": [
        0.00224315095692873,
        0.0015446363249793649
      ],
      "type": "VEC2"
    },
    {
      "bufferView": 1,
      "byteOffset": 2568992,
      "componentType": 5126,
      "count": 58994,
      "max": [
        4771.16748046875,
        5298.7939453125
      ],
      "min": [
        -6259.95703125,
        -3787.297607421875
      ],
      "type": "VEC2"
    },
    {
      "bufferView": 0,
      "byteOffset": 2054460,
      "componentType": 5125,
      "count": 197751,
      "type": "SCALAR"
    }
  ],
  "asset": {
    "extras": {
      "author": "patrick.young (https://sketchfab.com/patrick.young)",
      "license": "CC-BY-4.0 (http://creativecommons.org/licenses/by/4.0/)",
      "source": "https://sketchfab.com/3d-models/singapore-botanic-gardens-singapore-2f29dca3edb2472fa88ad3577f2bde16",
      "title": "Singapore Botanic Gardens, Singapore"
    },
    "generator": "Sketchfab-15.56.0",
    "version": "2.0"
  },
  "bufferViews": [
    {
      "buffer": 0,
      "byteLength": 2845464,
      "name": "floatBufferViews",
      "target": 34963
    },
    {
      "buffer": 0,
      "byteLength": 3040944,
      "byteOffset": 2845464,
      "byteStride": 8,
      "name": "floatBufferViews",
      "target": 34962
    },
    {
      "buffer": 0,
      "byteLength": 4561416,
      "byteOffset": 5886408,
      "byteStride": 12,
      "name": "floatBufferViews",
      "target": 34962
    },
    {
      "buffer": 0,
      "byteLength": 3040944,
      "byteOffset": 10447824,
      "byteStride": 16,
      "name": "floatBufferViews",
      "target": 34962
    }
  ],
  "buffers": [
    {
      "byteLength": 13488768,
      "uri": "scene.bin"
    }
  ],
  "images": [
    {
      "uri": "textures/BotanicGarden_baseColor.jpeg"
    },
    {
      "uri": "textures/BotanicGarden_metallicRoughness.png"
    },
    {
      "uri": "textures/BotanicGarden_normal.png"
    }
  ],
  "materials": [
    {
      "doubleSided": true,
      "name": "BotanicGarden",
      "normalTexture": {
        "index": 2
      },
      "occlusionTexture": {
        "index": 1
      },
      "pbrMetallicRoughness": {
        "baseColorTexture": {
          "index": 0
        },
        "metallicRoughnessTexture": {
          "index": 1
        },
        "roughnessFactor": 0.6
      }
    }
  ],
  "meshes": [
    {
      "name": "BotanicGarden_BotanicGarden_0",
      "primitives": [
        {
          "attributes": {
            "NORMAL": 1,
            "POSITION": 0,
            "TANGENT": 2,
            "TEXCOORD_0": 3,
            "TEXCOORD_1": 4
          },
          "indices": 5,
          "material": 0,
          "mode": 4
        }
      ]
    },
    {
      "name": "BotanicGarden_BotanicGarden_0",
      "primitives": [
        {
          "attributes": {
            "NORMAL": 7,
            "POSITION": 6,
            "TANGENT": 8,
            "TEXCOORD_0": 9,
            "TEXCOORD_1": 10
          },
          "indices": 11,
          "material": 0,
          "mode": 4
        }
      ]
    },
    {
      "name": "BotanicGarden_BotanicGarden_0",
      "primitives": [
        {
          "attributes": {
            "NORMAL": 13,
            "POSITION": 12,
            "TANGENT": 14,
            "TEXCOORD_0": 15,
            "TEXCOORD_1": 16
          },
          "indices": 17,
          "material": 0,
          "mode": 4
        }
      ]
    }
  ],
  "nodes": [
    {
      "children": [
        1
      ],
      "matrix": [
        1.0,
        0.0,
        0.0,
        0.0,
        0.0,
        2.220446049250313e-16,
        -1.0,
        0.0,
        0.0,
        1.0,
        2.220446049250313e-16,
        0.0,
        0.0,
        0.0,
        0.0,
        1.0
      ],
      "name": "Sketchfab_model"
    },
    {
      "children": [
        2
      ],
      "matrix": [
        1.0,
        0.0,
        0.0,
        0.0,
        0.0,
        0.0,
        1.0,
        0.0,
        0.0,
        -1.0,
        0.0,
        0.0,
        0.0,
        0.0,
        0.0,
        1.0
      ],
      "name": "P014_SingaporeBotanicGardens.fbx"
    },
    {
      "children": [
        3
      ],
      "name": "RootNode"
    },
    {
      "children": [
        4,
        5,
        6
      ],
      "matrix": [
        1.0,
        0.0,
        0.0,
        0.0,
        0.0,
        2.220446049250313e-16,
        -1.0,
        0.0,
        0.0,
        1.0,
        2.220446049250313e-16,
        0.0,
        0.0,
        0.0,
        0.0,
        1.0
      ],
      "name": "BotanicGarden"
    },
    {
      "mesh": 0,
      "name": "BotanicGarden_BotanicGarden_0"
    },
    {
      "mesh": 1,
      "name": "BotanicGarden_BotanicGarden_0"
    },
    {
      "mesh": 2,
      "name": "BotanicGarden_BotanicGarden_0"
    }
  ],
  "samplers": [
    {
      "magFilter": 9729,
      "minFilter": 9987,
      "wrapS": 10497,
      "wrapT": 10497
    }
  ],
  "scene": 0,
  "scenes": [
    {
      "name": "Sketchfab_Scene",
      "nodes": [
        0
      ]
    }
  ],
  "textures": [
    {
      "sampler": 0,
      "source": 0
    },
    {
      "sampler": 0,
      "source": 1
    },
    {
      "sampler": 0,
      "source": 2
    }
  ]
}
